<svg width="48" height="16" viewBox="0 0 48 16" fill="none" xmlns="http://www.w3.org/2000/svg">
<g clip-path="url(#clip0_35_8398)">
<path d="M20.7995 15.7687H16.9112L19.3432 0.280273H23.2313L20.7995 15.7687Z" fill="#00579F"/>
<path d="M34.8951 0.659404C34.1282 0.346018 32.9117 0 31.4076 0C27.5678 0 24.8638 2.10895 24.8472 5.12412C24.8153 7.3487 26.7832 8.58429 28.255 9.32604C29.7593 10.084 30.2707 10.5787 30.2707 11.2543C30.2554 12.2919 29.0551 12.7702 27.9356 12.7702C26.3832 12.7702 25.5514 12.5236 24.2873 11.9464L23.7753 11.6989L23.2312 15.1757C24.1432 15.6036 25.8234 15.9834 27.5678 16C31.6477 16 34.3038 13.9237 34.3353 10.7105C34.3508 8.94739 33.3117 7.59639 31.0714 6.49242C29.7115 5.78374 28.8786 5.30589 28.8786 4.58079C28.8946 3.9216 29.583 3.24643 31.1182 3.24643C32.3823 3.21336 33.3111 3.52631 34.0146 3.83948L34.3663 4.00394L34.8951 0.659404Z" fill="#00579F"/>
<path d="M40.0638 10.2817C40.3841 9.39191 41.6162 5.94816 41.6162 5.94816C41.6001 5.98123 41.9358 5.04195 42.1278 4.46533L42.3996 5.7999C42.3996 5.7999 43.1359 9.50732 43.2958 10.2817C42.6881 10.2817 40.8318 10.2817 40.0638 10.2817ZM44.8635 0.280273H41.8559C40.9284 0.280273 40.2237 0.560153 39.8236 1.56535L34.0479 15.7685H38.1279C38.1279 15.7685 38.7995 13.8568 38.9439 13.4451C39.3915 13.4451 43.3604 13.4451 43.9362 13.4451C44.0478 13.9889 44.4002 15.7685 44.4002 15.7685H48.0004L44.8635 0.280273Z" fill="#00579F"/>
<path d="M13.6635 0.280273L9.85551 10.8419L9.43939 8.69988C8.73538 6.22826 6.52745 3.54291 4.06351 2.20768L7.55146 15.7523H11.6633L17.7751 0.280273H13.6635Z" fill="#00579F"/>
<path d="M6.31995 0.280273H0.0640009L0 0.593222C4.88003 1.87852 8.11199 4.97669 9.43985 8.70053L8.07988 1.58222C7.85598 0.593003 7.16792 0.312904 6.31995 0.280273Z" fill="#F4A622"/>
</g>
<defs>
<clipPath id="clip0_35_8398">
<rect width="48" height="16" fill="white"/>
</clipPath>
</defs>
</svg>
